PathFileType	4	(X/Y/Z)	C:\Users\Biomechanik\SynologyDrive\AlexP\Athlete_03\Athlete_3_25_03_31\Walking_01\marker_experimental.trc
DataRate	CameraRate	NumFrames	NumMarkers	Units	OrigDataRate	OrigDataStartFrame	OrigNumFrames
200.000000	200.000000	4	53	mm	200.000000	0	239
Frame#	Time	GLAB			RFHD			LFHD			C7			T6			SPINMOL			SPINM2			SPINM3			T12			BELTOL			BELT2			BELT3			SACROL			SACR2			SACR3			LTHOL			LTH2			LTH3			LSHAOL			LSHA2			LSHA3			LHEE			LTOE			LM5			RTHOL			RTH2			RTH3			RSHAOL			RSHA2			RSHA3			RHEE			RTOE			RM5			STRN			XIPH			LACR			LUAOL			LUA2			LUA3			LLAOL			LLA2			LLA3			LWRR			LWRU			RACR			RUAOL			RUA2			RUA3			RLAOL			RLA2			RLA3			RWRR			RWRU			
		X1	Y1	Z1	X2	Y2	Z2	X3	Y3	Z3	X4	Y4	Z4	X5	Y5	Z5	X6	Y6	Z6	X7	Y7	Z7	X8	Y8	Z8	X9	Y9	Z9	X10	Y10	Z10	X11	Y11	Z11	X12	Y12	Z12	X13	Y13	Z13	X14	Y14	Z14	X15	Y15	Z15	X16	Y16	Z16	X17	Y17	Z17	X18	Y18	Z18	X19	Y19	Z19	X20	Y20	Z20	X21	Y21	Z21	X22	Y22	Z22	X23	Y23	Z23	X24	Y24	Z24	X25	Y25	Z25	X26	Y26	Z26	X27	Y27	Z27	X28	Y28	Z28	X29	Y29	Z29	X30	Y30	Z30	X31	Y31	Z31	X32	Y32	Z32	X33	Y33	Z33	X34	Y34	Z34	X35	Y35	Z35	X36	Y36	Z36	X37	Y37	Z37	X38	Y38	Z38	X39	Y39	Z39	X40	Y40	Z40	X41	Y41	Z41	X42	Y42	Z42	X43	Y43	Z43	X44	Y44	Z44	X45	Y45	Z45	X46	Y46	Z46	X47	Y47	Z47	X48	Y48	Z48	X49	Y49	Z49	X50	Y50	Z50	X51	Y51	Z51	X52	Y52	Z52	X53	Y53	Z53	

1	0	-500.4848937988283	1579.595581054688	207.0017852783202	-551.2610473632814	1604.48974609375	271.6486206054686	-545.7175292968751	1601.661376953125	134.366729736328	-728.4750976562501	1419.157592773438	197.7752380371092	-790.6325073242189	1252.020141601562	195.9573822021483	-800.2578125000001	1211.410278320312	175.253448486328	-805.0551147460939	1204.714599609375	225.0447692871092	-796.0071411132814	1147.536254882812	192.0572662353514	-770.9642944335939	1081.515869140625	196.3603363037108	-809.9728393554689	1048.102294921875	185.5886383056639	-806.4261474609376	1044.4423828125	235.7829589843749	-814.4237670898439	985.3642578125	205.5680236816405	-800.3959350585939	944.995849609375	190.8734741210936	-791.5891113281251	938.4059448242188	241.0272216796874	-817.3257446289062	884.349853515625	212.5649414062499	-777.271728515625	680.4656372070312	20.32850646972642	-836.1412353515625	641.4218139648438	56.65755462646469	-794.02392578125	623.8995361328125	37.20000839233384	-890.8574829101562	340.9436645507812	44.81763458251937	-956.7908935546875	298.0045776367187	56.27759170532209	-909.057373046875	282.6352539062499	55.18412399291975	-1040.121704101562	122.403091430664	150.7895050048826	-836.6602172851562	39.78641510009761	149.0832519531249	-883.4863891601562	32.39042663574213	50.04162597656234	-636.7047729492189	646.9786376953125	384.9962158203124	-566.4992675781251	613.9118041992188	404.701934814453	-604.6281738281251	595.5760498046875	377.4702148437499	-505.6650390625001	320.6079406738281	387.3209228515624	-443.1869812011719	275.0784606933594	397.2178039550781	-486.6141662597657	262.6439819335937	376.6936035156249	-392.2473449707032	52.37558746337888	291.8200683593749	-205.688461303711	146.6291961669922	313.5597534179687	-237.1307525634766	94.37570953369139	407.7362670898437	-558.7426757812501	1313.283935546875	202.1886901855468	-544.7153320312501	1170.218505859375	198.7234497070311	-649.3539428710939	1382.140380859375	27.21111488342273	-628.3551635742189	1235.899658203125	-78.01112365722668	-625.9436035156251	1173.215942382812	-97.58668518066418	-584.2764892578126	1188.798583984375	-75.24039459228527	-503.2898254394532	1002.607055664062	-120.1994171142579	-496.9340820312501	926.2116088867188	-100.8313674926759	-460.3542480468751	959.9150390625	-110.7183380126954	-381.7196350097657	893.6864624023438	-94.23883056640632	-360.9168701171876	930.195556640625	-27.38922309875495	-649.7429809570315	1369.46435546875	370.0434265136718	-696.2759399414065	1226.56640625	467.5026550292968	-684.7427978515627	1163.333374023438	481.3362426757811	-734.0864868164065	1174.952758789062	484.5126953124999	-740.3283691406252	958.2356567382812	529.5140380859374	-702.5947265625001	902.1065063476562	569.9152221679686	-740.5946655273439	896.1474609375	538.8012084960936	-719.5999145507814	811.283203125	565.1140136718749	-673.1113891601564	784.156005859375	504.0557556152343	
2	0.005	-496.7462158203127	1579.110229492188	207.8014678955077	-547.4919433593751	1603.923583984375	272.4773864746093	-542.0014648437501	1601.213256835938	135.1928100585936	-724.6263427734376	1418.607177734375	198.4894104003905	-786.7877807617189	1251.495727539062	196.5366821289061	-796.4166259765626	1210.897583007812	175.802780151367	-801.2180175781251	1204.166381835938	225.5875701904295	-792.1677246093751	1147.013061523438	192.5650482177733	-767.1016845703126	1080.985107421875	196.8149261474608	-806.1154785156251	1047.63671875	186.1913604736327	-802.5288085937501	1043.939697265625	236.3781433105467	-810.6092529296876	984.8925170898438	206.1309356689452	-796.5977783203126	944.5714721679688	191.3667907714842	-787.7240600585939	937.9134521484375	241.4969787597655	-813.6080322265625	883.9336547851562	213.0238189697264	-774.1376953125	680.375244140625	20.46572303771958	-833.1170043945312	641.505859375	56.82310485839828	-791.0809326171875	623.8846435546875	37.30412292480455	-889.0296630859375	341.3901977539062	44.72483825683577	-955.1770629882812	298.8367309570312	56.18872833251935	-907.5189208984375	283.2026062011718	55.10548782348616	-1039.435913085938	123.7106781005859	150.5807037353514	-836.591796875	39.68680191040034	149.0697937011717	-883.2903442382812	32.43616104125971	49.98396301269515	-632.0226440429689	646.5994262695312	385.4815368652343	-561.5870361328126	613.8494873046875	404.7446289062499	-599.8519287109376	595.28515625	377.8526611328124	-501.5949401855469	320.2232360839843	387.096710205078	-439.2568054199219	274.3241577148438	397.0597534179687	-482.7067260742188	262.1941223144531	376.3639831542968	-388.7582092285157	51.80746078491209	291.5611877441406	-202.0223541259766	145.5959777832031	313.1654968261718	-233.4949798583985	93.44747924804686	407.3742980957031	-554.8964233398439	1312.707641601562	202.8061370849608	-540.8544921875001	1169.6474609375	199.1974792480468	-645.5498046875001	1381.688720703125	27.86904907226551	-624.7457275390626	1235.44873046875	-77.45842742919933	-622.2497558593751	1172.721801757812	-97.02186584472668	-580.6467285156251	1188.357421875	-74.77396392822277	-499.5973510742188	1002.240966796875	-119.8182830810548	-493.1281433105469	925.826416015625	-100.5037994384766	-456.6399536132813	959.58349609375	-110.3681030273438	-377.9385986328126	893.370361328125	-93.9279861450196	-357.1337890625001	929.9096069335938	-27.08859443664557	-645.9487304687502	1368.726318359375	370.7076721191405	-692.5213012695315	1225.754272460938	468.0106811523436	-680.9678344726565	1162.514282226562	481.8248596191405	-730.3680419921877	1174.106323242188	485.0006408691405	-736.5227661132815	957.3507080078125	529.8595581054686	-698.7775268554689	901.2000732421875	570.2205200195311	-736.7662353515626	895.246826171875	539.0879516601561	-715.7664794921876	810.3717041015625	565.3251953124999	-669.2166137695314	783.3274536132812	504.2615356445311	
3	0.01	-492.4450988769533	1578.572631835938	208.7256469726562	-543.1618041992189	1603.2939453125	273.434600830078	-537.7266235351564	1600.71533203125	136.1461791992187	-720.1945800781251	1417.989868164062	199.3184814453124	-782.3577270507814	1250.90869140625	197.2078399658202	-791.9885253906251	1210.324096679688	176.4384613037108	-796.7973632812501	1203.552124023438	226.2159271240233	-787.7432250976564	1146.427124023438	193.1526794433592	-762.6502685546876	1080.389282226562	197.3421630859374	-801.6695556640626	1047.105102539062	186.8792724609374	-798.0401611328126	1043.368041992188	237.0581665039061	-806.2088623046876	984.3539428710938	206.7756958007811	-792.2128906250001	944.0851440429688	191.9278869628905	-783.2679443359376	937.351806640625	242.0331726074217	-809.3026733398438	883.45263671875	213.543014526367	-770.5014038085938	680.2782592773438	20.62307357788072	-829.5930786132812	641.59716796875	57.02189254760727	-787.6461791992188	623.8629760742188	37.43413543701158	-886.8753051757812	341.9135437011718	44.61900329589827	-953.2693481445312	299.8123168945312	56.0882263183592	-905.7000122070312	283.8694763183593	55.01766204833968	-1038.594116210938	125.2534866333007	150.3443298339842	-836.5180053710938	39.57095336914058	149.0578002929686	-883.0579223632812	32.49253463745112	49.91536712646468	-626.6381225585939	646.1981201171875	386.0439453124999	-555.9503173828126	613.800537109375	404.8157653808593	-594.3651123046876	594.9827880859375	378.3028259277343	-496.9524536132813	319.7922668457031	386.8551635742186	-434.7966613769532	273.4674987792969	396.8753051757812	-478.2776184082032	261.6894226074218	376.0024108886718	-384.9415893554688	51.16062164306638	291.2488708496093	-197.9505920410157	144.2586669921875	312.6792297363281	-229.490936279297	92.27826690673827	406.9335021972656	-550.4644165039064	1312.063110351562	203.5261383056639	-536.4033203125001	1169.009521484375	199.7552947998046	-641.1589355468751	1381.18310546875	28.63571929931629	-620.5841064453126	1234.945190429688	-76.8118133544923	-617.9990844726564	1172.170532226562	-96.36162567138683	-576.4667358398439	1187.861206054688	-74.2318115234376	-495.3715209960938	1001.818176269531	-119.3798828125001	-488.7890625000001	925.3793334960938	-100.1276626586915	-452.3954162597657	959.1902465820312	-109.9663009643556	-373.6299133300782	892.985107421875	-93.57800292968757	-352.8168029785157	929.5474243164062	-26.74517822265631	-641.576354980469	1367.895141601562	371.4815368652343	-688.1888427734377	1224.831909179688	468.6041564941405	-676.6120605468752	1161.585083007812	482.3940124511718	-726.071716308594	1173.14404296875	485.5669555664061	-732.1206665039065	956.3408813476562	530.2539062499999	-694.3588256835939	900.1646118164062	570.5672607421874	-732.3347778320314	894.2200927734375	539.4137573242186	-711.3276977539064	809.3330688476562	565.5638427734374	-664.7073974609376	782.3895874023438	504.4904479980468	
4	0.015	-487.6141357421877	1577.993408203125	209.7683868408202	-538.3046875000001	1602.61279296875	274.5134887695311	-532.9256591796876	1600.1767578125	137.2203063964843	-715.2125854492189	1417.315673828125	200.2583923339842	-777.3739624023439	1250.268432617188	197.9673767089842	-787.0044555664064	1209.699584960938	177.1569061279295	-791.8248901367189	1202.8818359375	226.9264068603514	-782.7651367187501	1145.7880859375	193.816940307617	-757.6416015625001	1079.737670898438	197.9394378662108	-796.6658935546876	1046.512573242188	187.6451873779295	-792.9924316406251	1042.733764648438	237.8160858154295	-801.2517089843751	983.75390625	207.4962158203124	-787.2698364257814	943.5413818359375	192.550582885742	-778.2515869140626	936.7268676757812	242.6303100585936	-804.4336547851562	882.9097290039062	214.1161499023436	-766.3796997070312	680.176513671875	20.80054855346665	-825.581787109375	641.6928100585938	57.25592803955063	-783.7305297851562	623.8333129882812	37.59260559082017	-884.3944091796875	342.5127868652343	44.50141143798812	-951.0658569335938	300.9294433593749	55.97779083251935	-903.598876953125	284.6349792480468	54.92223739624007	-1037.585083007812	127.0316543579101	150.0838165283201	-836.4412231445312	39.43912887573237	149.0485382080077	-882.7886962890625	32.56003952026362	49.83597564697249	-620.5967407226564	645.7882080078125	386.6791687011718	-549.6392211914064	613.7713623046875	404.920196533203	-588.2144165039064	594.6802978515625	378.8197631835936	-491.7852783203126	319.3213195800781	386.6041870117186	-429.8565063476563	272.5175476074219	396.6644287109374	-473.3797607421876	261.1377868652343	375.6178894042968	-380.8826904296876	50.44421768188474	290.8828124999999	-193.5467529296876	142.5870819091797	312.0951843261718	-225.199447631836	90.84955596923827	406.4101867675781	-545.4783325195314	1311.360717773438	204.3461456298827	-531.3928833007814	1168.31591796875	200.3964233398437	-636.2107543945314	1380.631958007812	29.50830459594715	-615.8988037109376	1234.398071289062	-76.07279205322277	-613.2236938476564	1171.572021484375	-95.60848236083996	-571.7670898437501	1187.317260742188	-73.61559295654307	-490.6514587402344	1001.341491699219	-118.8867950439454	-483.9619445800782	924.872802734375	-99.70600128173837	-447.6617126464844	958.7349243164062	-109.5162582397462	-368.8392028808594	892.5269165039062	-93.19365692138679	-348.0096740722657	929.1016235351562	-26.36240386962897	-636.6569824218752	1366.98291015625	372.3621520996093	-683.307556152344	1223.810180664062	469.281280517578	-671.7046508789065	1160.557250976562	483.0415954589843	-721.2241821289065	1172.076904296875	486.208770751953	-727.148376464844	955.216796875	530.6932983398436	-689.3641967773439	899.0112915039062	570.9518432617186	-727.3259277343751	893.078125	539.7749023437499	-706.3085937500001	808.1786499023438	565.8269042968749	-659.6095581054689	781.3543701171875	504.7382812499999	
